<?xml version="1.0" standalone="no"?>
<!DOCTYPE svg PUBLIC "-//W3C//DTD SVG 20010904//EN"
 "http://www.w3.org/TR/2001/REC-SVG-20010904/DTD/svg10.dtd">
<svg version="1.0" xmlns="http://www.w3.org/2000/svg"
 width="50.000000pt" height="50.000000pt" viewBox="0 0 50.000000 50.000000"
 preserveAspectRatio="xMidYMid meet">

<g transform="translate(0.000000,50.000000) scale(0.100000,-0.100000)"
fill="#000000" stroke="none">
<path d="M265 460 c-18 -20 -18 -21 3 -43 l22 -21 22 21 c21 22 21 23 3 43
-10 11 -21 20 -25 20 -4 0 -15 -9 -25 -20z m35 -20 c0 -5 -4 -10 -10 -10 -5 0
-10 5 -10 10 0 6 5 10 10 10 6 0 10 -4 10 -10z"/>
<path d="M200 417 c0 -39 66 -87 119 -87 31 0 81 18 81 29 0 5 -21 39 -36 60
-2 1 -13 -4 -26 -13 -30 -21 -56 -20 -96 4 -38 24 -42 24 -42 7z m165 -48 c0
-19 -74 -24 -99 -6 -18 13 -17 14 12 9 16 -2 38 1 49 7 22 13 38 9 38 -10z"/>
<path d="M93 361 c-18 -12 -33 -24 -33 -29 0 -6 22 -42 37 -61 2 -3 14 6 27
18 26 25 61 25 61 1 0 -9 -11 -16 -29 -18 -26 -3 -28 -6 -22 -34 3 -17 6 -34
6 -39 0 -4 10 -9 21 -11 31 -4 46 -32 30 -52 -31 -37 -129 -1 -146 54 -12 38
-28 22 -21 -21 13 -81 71 -127 142 -116 45 8 70 29 84 73 9 26 17 34 36 34 24
0 58 27 80 66 10 15 16 17 30 8 42 -24 19 -114 -29 -114 -12 1 -33 7 -47 15
-14 8 -31 14 -38 15 -21 0 -4 -41 29 -73 52 -49 126 -30 155 39 40 94 -9 194
-95 194 -28 0 -42 -8 -77 -46 -30 -34 -47 -45 -60 -40 -15 6 -16 8 0 24 40 45
0 120 -69 128 -29 4 -49 0 -72 -15z m112 -26 c31 -30 32 -58 4 -86 -23 -23
-17 -33 30 -46 21 -5 32 2 65 41 33 37 47 46 74 46 40 0 69 -28 78 -75 20
-111 -61 -184 -133 -120 l-28 25 33 -11 c45 -15 79 -4 97 31 20 39 19 73 -3
100 -25 31 -60 21 -90 -26 -21 -32 -27 -35 -56 -30 -32 6 -34 5 -40 -33 -14
-91 -133 -111 -176 -30 -11 19 -10 19 22 -1 43 -26 92 -26 118 0 28 28 25 56
-7 77 -45 28 -56 53 -25 53 41 0 57 51 23 70 -28 14 -52 12 -73 -6 -16 -16
-18 -15 -24 1 -18 45 71 61 111 20z"/>
</g>
</svg>